<svg width="130" height="74" viewBox="0 0 130 74" fill="none" xmlns="http://www.w3.org/2000/svg">
<g id="Logo Alura Include" clip-path="url(#clip0_1_628)">
<g id="a-2">
<path id="Vector" d="M74.6321 69.0535H75.604C75.8643 69.0361 76.1246 69.1057 76.3503 69.2622C76.5238 69.4186 76.6279 69.6447 76.6106 69.8707C76.6279 70.0967 76.5412 70.3402 76.385 70.514C76.2114 70.6879 75.9858 70.7922 75.7428 70.827V70.8444C76.1246 70.9139 76.4023 71.2617 76.385 71.6616C76.4023 71.9746 76.2635 72.2875 76.0205 72.4962C75.7428 72.7048 75.3784 72.8265 75.0313 72.7918H73.8685L74.6321 69.0535ZM74.4933 70.9487L74.1461 72.5657H75.0139C75.2916 72.5831 75.5693 72.4962 75.7949 72.3397C75.9858 72.1832 76.0899 71.9398 76.0726 71.679C76.0899 71.4703 76.0032 71.2617 75.847 71.1226C75.6387 70.9835 75.3957 70.9313 75.1528 70.9487H74.4933ZM74.5453 70.7227H75.2569C75.5346 70.7401 75.8122 70.6705 76.0552 70.514C76.2461 70.3749 76.3503 70.1489 76.3329 69.9055C76.3503 69.7316 76.2635 69.5577 76.142 69.436C75.9684 69.3143 75.7602 69.2622 75.5519 69.2795H74.8577L74.5453 70.7227Z" fill="#2B2B2B"/>
<path id="Vector_2" d="M76.9577 70.0098H77.218L77.4263 71.4182C77.5131 72.0094 77.5651 72.3919 77.5651 72.5657H77.5998C77.6693 72.3919 77.8255 72.0789 78.0684 71.6268L78.9535 70.0098H79.2139L77.3916 73.3134C77.3048 73.4699 77.2007 73.6264 77.0792 73.7655C76.9924 73.8524 76.8883 73.9219 76.7841 73.9741C76.6627 74.0263 76.5412 74.061 76.4197 74.0437C76.3156 74.0437 76.1941 74.0263 76.0899 73.9915V73.7481C76.1941 73.8002 76.3156 73.8176 76.437 73.8176C76.5759 73.8176 76.6974 73.7655 76.8189 73.6959C76.9577 73.5742 77.0618 73.4351 77.1486 73.2786C77.2527 73.0874 77.3395 72.9309 77.4089 72.8092L76.9577 70.0098Z" fill="#2B2B2B"/>
<path id="Vector_3" d="M82.4593 71.7659H81.2271L80.6891 72.8091H80.0469L82.0428 69.0709H82.737L83.1535 72.8091H82.5634L82.4593 71.7659ZM82.4246 71.2269C82.3552 70.514 82.3205 70.0967 82.3031 69.9403C82.2858 69.7838 82.2858 69.6794 82.2858 69.5925C82.199 69.8185 82.0775 70.0794 81.9213 70.3749L81.4874 71.2269H82.4246Z" fill="#2B2B2B"/>
<path id="Vector_4" d="M84.1601 72.7918H83.57L84.4204 68.8101H85.0278L84.1601 72.7918Z" fill="#2B2B2B"/>
<path id="Vector_5" d="M86.1733 69.975L85.8435 71.5399C85.8088 71.6964 85.7741 71.8702 85.7568 72.0267C85.7568 72.2528 85.8609 72.3745 86.0865 72.3745C86.2254 72.3745 86.3468 72.3223 86.451 72.2354C86.5898 72.1137 86.6939 71.9746 86.7807 71.8007C86.8849 71.592 86.9543 71.3834 86.989 71.1748L87.2493 69.975H87.8394L87.2493 72.8092H86.7807L86.8328 72.2875H86.8154C86.6939 72.4614 86.5551 72.6179 86.3816 72.7222C86.2427 72.8092 86.0692 72.8613 85.8956 72.8613C85.7047 72.8787 85.5138 72.8092 85.375 72.6701C85.2361 72.5136 85.1841 72.3223 85.1841 72.1137C85.1841 72.0093 85.2014 71.905 85.2188 71.8007C85.2361 71.6964 85.2535 71.5921 85.2708 71.4877L85.5832 69.9924L86.1733 69.975Z" fill="#2B2B2B"/>
<path id="Vector_6" d="M90.0088 69.9229C90.0956 69.9229 90.1997 69.9403 90.2865 69.9577L90.1477 70.514C90.0609 70.4967 89.9741 70.4793 89.8873 70.4793C89.6617 70.4793 89.4535 70.5836 89.3146 70.7749C89.1411 71.0009 89.0196 71.2617 88.9675 71.5399L88.6898 72.8265H88.0824L88.6898 69.9924H89.1584L89.1064 70.514H89.1237C89.2278 70.3402 89.384 70.1837 89.5402 70.0794C89.6964 69.9577 89.8526 69.9229 90.0088 69.9229Z" fill="#2B2B2B"/>
<path id="Vector_7" d="M91.1195 72.8439C90.8939 72.8613 90.6856 72.757 90.5468 72.5831C90.3906 72.3745 90.3212 72.1137 90.3385 71.8529C90.3385 71.5225 90.3906 71.1921 90.5121 70.8792C90.6162 70.601 90.7898 70.3576 90.998 70.1663C91.189 69.9924 91.4319 69.9055 91.6923 69.9055C91.8484 69.9055 91.9873 69.9403 92.1261 70.0272C92.2476 70.1141 92.3517 70.2358 92.4038 70.3749H92.4385L92.5947 69.975H93.0633L92.4559 72.8091H91.9699L92.022 72.3571H92.0046C91.7443 72.6874 91.4493 72.8439 91.1195 72.8439ZM91.3451 72.3571C91.5013 72.3397 91.6575 72.2701 91.7617 72.1658C91.9005 72.0093 92.022 71.8355 92.0914 71.6268C92.1782 71.4008 92.2303 71.14 92.2303 70.8966C92.2303 70.7575 92.1955 70.6358 92.1088 70.5314C92.022 70.4445 91.9179 70.3923 91.7964 70.3923C91.6402 70.3923 91.484 70.4619 91.3799 70.5836C91.241 70.7401 91.1369 70.9139 91.0675 71.1226C90.998 71.3486 90.946 71.5747 90.946 71.8181C90.9286 71.9572 90.9807 72.0963 91.0501 72.2006C91.1195 72.3223 91.2237 72.3745 91.3451 72.3571Z" fill="#2B2B2B"/>
<path id="Vector_8" d="M97.4889 70.0793C97.5062 70.4619 97.35 70.8096 97.055 71.053C96.7079 71.2965 96.274 71.4182 95.8401 71.4008H95.5624L95.2674 72.7918H94.66L95.441 69.0535H96.2914C96.6038 69.0361 96.9161 69.1231 97.1765 69.3143C97.4021 69.523 97.5062 69.8012 97.4889 70.0793ZM95.6839 70.8792H95.9269C96.1699 70.8965 96.4302 70.827 96.6211 70.6705C96.7947 70.5314 96.8814 70.3228 96.8641 70.0967C96.8814 69.9403 96.8294 69.8012 96.7079 69.6968C96.569 69.6099 96.4128 69.5577 96.2567 69.5751H95.9616L95.6839 70.8792Z" fill="#2B2B2B"/>
<path id="Vector_9" d="M98.5128 72.8439C98.2872 72.8613 98.079 72.757 97.9401 72.5831C97.7839 72.3745 97.7145 72.1137 97.7319 71.8529C97.7319 71.5225 97.7839 71.1921 97.9054 70.8792C98.0095 70.601 98.1657 70.3576 98.3913 70.1663C98.5823 69.9924 98.8252 69.9055 99.0682 69.9055C99.2244 69.9055 99.3632 69.9403 99.5021 70.0272C99.6236 70.1141 99.7277 70.2358 99.7798 70.3749H99.8145L99.9707 69.975H100.439L99.8318 72.8091H99.3632L99.4153 72.3571H99.3979C99.1376 72.6874 98.8426 72.8439 98.5128 72.8439ZM98.7384 72.3571C98.8946 72.3397 99.0508 72.2701 99.155 72.1658C99.2938 72.0093 99.4153 71.8355 99.4847 71.6268C99.5715 71.4008 99.6236 71.14 99.6236 70.8966C99.6236 70.7575 99.5889 70.6358 99.5021 70.5314C99.4153 70.4445 99.3112 70.3923 99.1897 70.3923C99.0335 70.3923 98.8773 70.4619 98.7905 70.5836C98.6517 70.7401 98.5475 70.9139 98.4781 71.1226C98.4087 71.3486 98.3566 71.5747 98.3566 71.8181C98.3393 71.9572 98.3914 72.0963 98.4608 72.2006C98.5128 72.3223 98.617 72.3745 98.7384 72.3571Z" fill="#2B2B2B"/>
<path id="Vector_10" d="M102.557 69.9229C102.643 69.9229 102.747 69.9403 102.834 69.9577L102.695 70.514C102.609 70.4967 102.522 70.4793 102.435 70.4793C102.209 70.4793 102.001 70.5836 101.862 70.7575C101.689 70.9835 101.567 71.2443 101.515 71.5225L101.238 72.8092H100.648L101.255 69.975H101.724L101.671 70.4967H101.689C101.793 70.3228 101.949 70.1663 102.123 70.062C102.244 69.9577 102.4 69.9229 102.557 69.9229Z" fill="#2B2B2B"/>
<path id="Vector_11" d="M103.685 72.8439C103.459 72.8613 103.251 72.757 103.112 72.5831C102.956 72.3745 102.886 72.1137 102.904 71.8529C102.904 71.5225 102.956 71.1921 103.077 70.8792C103.181 70.601 103.338 70.3576 103.563 70.1663C103.754 69.9924 103.997 69.9055 104.257 69.9055C104.414 69.9055 104.552 69.9403 104.691 70.0272C104.813 70.1141 104.917 70.2358 104.969 70.3749H105.004L105.16 69.975H105.628L105.021 72.8091H104.552L104.605 72.3571H104.587C104.292 72.6874 103.997 72.8439 103.685 72.8439ZM103.893 72.3571C104.049 72.3397 104.205 72.2701 104.309 72.1658C104.448 72.0093 104.57 71.8355 104.639 71.6268C104.726 71.4008 104.778 71.14 104.778 70.8966C104.778 70.7575 104.743 70.6358 104.657 70.5314C104.57 70.4445 104.466 70.3923 104.344 70.3923C104.188 70.3923 104.032 70.4619 103.928 70.5836C103.789 70.7401 103.685 70.9139 103.615 71.1226C103.546 71.3486 103.494 71.5747 103.494 71.8181C103.476 71.9572 103.511 72.0963 103.598 72.2006C103.667 72.3049 103.789 72.3745 103.893 72.3571Z" fill="#2B2B2B"/>
<path id="Vector_12" d="M109.204 72.7918H107.225L108.006 69.0535H109.985L109.88 69.5751H108.509L108.301 70.5836H109.585L109.481 71.1052H108.197L107.954 72.2702H109.342L109.204 72.7918Z" fill="#2B2B2B"/>
<path id="Vector_13" d="M111.859 69.9229C112.241 69.9229 112.449 70.1315 112.501 70.5314H112.518C112.623 70.3402 112.779 70.1837 112.952 70.0794C113.109 69.975 113.282 69.9229 113.456 69.9229C113.647 69.9055 113.837 69.975 113.976 70.1141C114.098 70.2706 114.167 70.4619 114.15 70.6705C114.15 70.827 114.132 70.9835 114.098 71.14L113.733 72.8092H113.143L113.508 71.0878C113.542 70.9661 113.542 70.8618 113.56 70.7401C113.56 70.514 113.456 70.4097 113.247 70.4097C113.039 70.4271 112.831 70.5488 112.727 70.7227C112.553 70.9661 112.432 71.2617 112.38 71.5573L112.119 72.7918H111.512L111.876 71.0704C111.894 70.9661 111.911 70.8618 111.911 70.7401C111.911 70.514 111.807 70.3923 111.616 70.3923C111.408 70.4097 111.199 70.5314 111.095 70.7227C110.922 70.9835 110.8 71.2791 110.748 71.5921L110.505 72.7918H109.898L110.505 69.9577H110.974L110.922 70.4793H110.939C111.217 70.0968 111.512 69.9229 111.859 69.9229Z" fill="#2B2B2B"/>
<path id="Vector_14" d="M115.92 72.8439C115.625 72.8439 115.347 72.67 115.226 72.3919H115.209C115.191 72.5483 115.174 72.7048 115.139 72.8613L114.896 74.061H114.306L115.174 69.975H115.642L115.59 70.4619H115.608C115.868 70.1141 116.163 69.9229 116.493 69.9229C116.718 69.9055 116.927 70.0098 117.065 70.1837C117.222 70.3923 117.291 70.6531 117.274 70.9139C117.274 71.2443 117.222 71.5747 117.1 71.8876C116.996 72.1658 116.84 72.4092 116.614 72.6005C116.423 72.757 116.163 72.8439 115.92 72.8439ZM116.267 70.4097C116.111 70.4271 115.955 70.4967 115.851 70.6184C115.712 70.7748 115.59 70.9487 115.521 71.1574C115.434 71.3834 115.399 71.6094 115.399 71.8528C115.382 71.9919 115.434 72.131 115.521 72.2354C115.608 72.3223 115.729 72.3745 115.851 72.3745C116.007 72.3745 116.163 72.2875 116.25 72.1658C116.389 72.0093 116.475 71.8181 116.545 71.6268C116.614 71.4008 116.649 71.1747 116.649 70.9313C116.649 70.5836 116.527 70.4097 116.267 70.4097Z" fill="#2B2B2B"/>
<path id="Vector_15" d="M119.547 69.9229C119.634 69.9229 119.738 69.9403 119.825 69.9577L119.686 70.514C119.599 70.4967 119.513 70.4793 119.426 70.4793C119.2 70.4793 118.992 70.5836 118.853 70.7575C118.68 70.9835 118.558 71.2443 118.506 71.5225L118.228 72.8092H117.621L118.228 69.975H118.697L118.645 70.4967H118.662C118.766 70.3228 118.923 70.1663 119.096 70.062C119.235 69.9577 119.391 69.9229 119.547 69.9229Z" fill="#2B2B2B"/>
<path id="Vector_16" d="M120.953 72.8439C120.658 72.8613 120.38 72.757 120.172 72.5657C119.981 72.3571 119.877 72.0615 119.894 71.7659C119.894 71.4356 119.964 71.1226 120.085 70.827C120.207 70.5662 120.38 70.3228 120.623 70.1489C120.849 69.9924 121.109 69.9055 121.387 69.9055C121.613 69.8881 121.838 69.9577 122.029 70.0967C122.185 70.2185 122.272 70.4271 122.255 70.6184C122.255 70.9139 122.099 71.2095 121.821 71.3486C121.439 71.5399 121.023 71.6268 120.606 71.6094H120.502V71.6964V71.7659C120.485 71.9224 120.537 72.0789 120.641 72.218C120.745 72.3397 120.918 72.3919 121.075 72.3745C121.196 72.3745 121.318 72.3571 121.439 72.3223C121.595 72.2701 121.734 72.218 121.873 72.1484V72.6353C121.734 72.7048 121.578 72.757 121.422 72.7918C121.266 72.8265 121.109 72.8439 120.953 72.8439ZM121.335 70.3749C121.161 70.3749 120.988 70.4619 120.866 70.601C120.71 70.7575 120.606 70.9661 120.554 71.1748H120.623C120.884 71.1921 121.144 71.14 121.37 71.0357C121.526 70.9661 121.63 70.827 121.647 70.6531C121.647 70.5836 121.63 70.4967 121.561 70.4445C121.508 70.3923 121.422 70.3749 121.335 70.3749Z" fill="#2B2B2B"/>
<path id="Vector_17" d="M124.389 71.9224C124.407 72.1832 124.285 72.444 124.094 72.6005C123.851 72.7744 123.556 72.8613 123.261 72.8439C122.984 72.8439 122.689 72.7918 122.446 72.6701V72.1484C122.689 72.2875 122.966 72.3745 123.244 72.3745C123.383 72.3745 123.522 72.3397 123.643 72.2701C123.747 72.218 123.799 72.0963 123.799 71.9919C123.799 71.905 123.765 71.8355 123.713 71.7659C123.608 71.6616 123.487 71.5747 123.348 71.5225C123.175 71.4356 123.018 71.3138 122.897 71.1747C122.81 71.053 122.758 70.8966 122.758 70.7575C122.741 70.514 122.845 70.288 123.036 70.1315C123.244 69.975 123.504 69.8881 123.782 69.9055C124.094 69.9055 124.389 69.975 124.667 70.1141L124.476 70.5662C124.268 70.4445 124.042 70.3749 123.799 70.3749C123.695 70.3749 123.591 70.3923 123.504 70.4619C123.435 70.514 123.383 70.601 123.383 70.7053C123.383 70.7748 123.418 70.8618 123.47 70.9139C123.574 71.0009 123.695 71.0878 123.817 71.14C123.956 71.2095 124.077 71.2965 124.198 71.4008C124.268 71.4703 124.337 71.5399 124.372 71.6442C124.372 71.7311 124.389 71.8355 124.389 71.9224Z" fill="#2B2B2B"/>
<path id="Vector_18" d="M125.76 72.8439C125.535 72.8613 125.327 72.757 125.188 72.5831C125.032 72.3745 124.962 72.1137 124.979 71.8529C124.979 71.5225 125.032 71.1921 125.153 70.8792C125.257 70.601 125.413 70.3576 125.639 70.1663C125.83 69.9924 126.073 69.9055 126.316 69.9055C126.472 69.9055 126.611 69.9403 126.75 70.0272C126.871 70.1141 126.975 70.2358 127.027 70.3749H127.062L127.218 69.975H127.687L127.079 72.8091H126.611L126.663 72.3571H126.646C126.385 72.6874 126.09 72.8439 125.76 72.8439ZM125.986 72.3571C126.142 72.3397 126.298 72.2701 126.403 72.1658C126.541 72.0093 126.663 71.8355 126.732 71.6268C126.819 71.4008 126.871 71.14 126.871 70.8966C126.871 70.7575 126.836 70.6358 126.75 70.5314C126.663 70.4445 126.559 70.3923 126.437 70.3923C126.281 70.3923 126.125 70.4619 126.038 70.5836C125.899 70.7401 125.795 70.9139 125.726 71.1226C125.656 71.3486 125.604 71.5747 125.604 71.8181C125.587 71.9572 125.639 72.0963 125.708 72.2006C125.76 72.3223 125.865 72.3745 125.986 72.3571Z" fill="#2B2B2B"/>
<path id="Vector_19" d="M129.77 71.9224C129.787 72.1832 129.665 72.444 129.474 72.6005C129.232 72.7744 128.936 72.8613 128.641 72.8439C128.364 72.8439 128.069 72.7918 127.826 72.6701V72.1484C128.069 72.2875 128.346 72.3745 128.624 72.3745C128.763 72.3745 128.902 72.3397 129.023 72.2701C129.127 72.218 129.179 72.0963 129.179 71.9919C129.179 71.905 129.145 71.8355 129.093 71.7659C128.989 71.6616 128.867 71.5747 128.728 71.5225C128.555 71.4356 128.398 71.3138 128.277 71.1747C128.19 71.053 128.138 70.8966 128.138 70.7575C128.121 70.514 128.225 70.288 128.416 70.1315C128.624 69.975 128.884 69.8881 129.145 69.9055C129.457 69.9055 129.752 69.975 130.03 70.1141L129.839 70.5662C129.631 70.4445 129.405 70.3749 129.162 70.3749C129.058 70.3749 128.954 70.3923 128.867 70.4619C128.798 70.514 128.746 70.601 128.746 70.7053C128.746 70.7748 128.78 70.8618 128.832 70.9139C128.936 71.0009 129.058 71.0878 129.179 71.14C129.318 71.2095 129.44 71.2965 129.561 71.4008C129.631 71.4703 129.683 71.5399 129.735 71.6442C129.752 71.7311 129.77 71.8355 129.77 71.9224Z" fill="#2B2B2B"/>
<path id="Vector_20" d="M67.1173 10.389C65.8851 9.41536 64.0802 8.89374 61.5463 8.89374C60.4009 8.87635 59.2381 8.98068 58.11 9.20671C57.2943 9.43274 56.5133 9.79788 55.8365 10.3021C55.2637 10.7368 54.8125 11.328 54.5348 11.9887C54.2745 12.632 54.1357 13.3101 54.153 14.0056V14.7185C54.0836 14.9097 54.2224 15.0488 54.4133 15.0488H57.5199C57.6588 15.0314 57.7629 14.9271 57.7802 14.788C57.8323 14.0925 58.11 13.4318 58.5612 12.9102C59.0819 12.319 60.0538 12.0061 61.4769 12.0061C62.0843 11.9887 62.7091 12.0756 63.2818 12.2669C63.681 12.4233 64.0628 12.632 64.3752 12.9102C64.8438 13.3796 65.1215 14.0056 65.1562 14.6663V15.5704C65.1562 15.8834 65.0868 16.1964 64.9653 16.4746C64.8612 16.718 64.705 16.944 64.5141 17.1179C64.3752 17.3092 64.2017 17.4483 63.9934 17.57C63.8546 17.6743 63.6984 17.7612 63.5422 17.8308C63.4727 17.9003 63.2124 17.9699 62.6918 18.1611C62.1711 18.3524 61.7199 18.5436 61.0777 18.7523C60.4356 18.9609 59.7761 19.1348 59.1339 19.3956C58.4918 19.6564 57.9017 19.7781 57.3811 19.9868C56.3571 20.3171 55.5067 21.0126 54.9861 21.9342C54.448 22.8209 54.153 23.8294 54.153 24.8552V26.8721C54.1877 27.4459 54.3092 28.0197 54.4828 28.5587C54.691 29.2194 55.0728 29.7932 55.5761 30.2452C56.2009 30.8538 56.9472 31.2885 57.7802 31.5493C58.9778 31.9144 60.2273 32.0883 61.4769 32.0709C62.7265 32.1231 63.976 31.9492 65.1736 31.5493C66.0066 31.2885 66.7876 30.8364 67.4297 30.2452C67.9504 29.7932 68.3322 29.2194 68.5405 28.5587C68.7487 28.0197 68.8528 27.4459 68.8702 26.8721V14.1621C68.8702 12.6842 68.2281 11.3106 67.1173 10.389ZM64.3926 27.9675C63.8719 28.4891 62.8306 28.8021 61.4769 28.8021C60.1232 28.8021 59.1513 28.5413 58.6306 28.0197C58.0579 27.3242 57.7802 26.4548 57.8497 25.5507C57.8497 25.0986 57.9191 24.577 58.1794 24.1945C58.3877 23.8641 58.6133 23.5512 58.891 23.2904C59.1513 23.0991 59.5331 22.9078 59.8629 22.6992C60.2447 22.5079 60.8348 22.3688 61.286 22.1776C61.7372 21.9689 62.2232 21.7951 62.7091 21.656C63.2298 21.5342 63.681 21.3256 64.1322 21.2039C64.3579 21.1343 64.5835 21.03 64.7744 20.8735C65.0174 20.7344 65.1735 20.491 65.2256 20.2302L65.1562 25.5507C65.2256 26.4201 64.9479 27.2894 64.3926 27.9675Z" fill="#2B2B2B"/>
<path id="Vector_21" d="M50.5431 8.89376H52.6084C52.7472 8.91114 52.8514 9.01547 52.8687 9.15456V9.20673L52.1572 11.9365C52.1572 12.0756 52.0357 12.1278 51.8968 12.1278H50.4737C49.8316 12.1104 49.1894 12.2147 48.5994 12.4581C48.1828 12.6146 47.801 12.858 47.506 13.171C47.2804 13.4144 47.0895 13.6926 46.9853 14.0056C46.9159 14.2838 46.8638 14.562 46.8465 14.8402V31.7058C46.8638 31.8797 46.725 32.0188 46.5688 32.0361C46.5514 32.0361 46.5514 32.0361 46.5341 32.0361H43.4275C43.2713 32.0188 43.1498 31.8797 43.1672 31.7058V14.1447C43.1672 13.6926 43.2366 13.2232 43.3581 12.7885C43.4796 12.1278 43.8093 11.5192 44.2606 11.0324C44.8853 10.3891 45.6316 9.86744 46.4647 9.53708C47.7489 9.03285 49.1547 8.80682 50.5431 8.89376Z" fill="#2B2B2B"/>
<path id="Vector_22" d="M39.9912 26.0028V26.7852C39.9912 27.272 39.9217 27.7415 39.8003 28.2109C39.6614 28.8717 39.349 29.4628 38.8978 29.9671C38.273 30.6104 37.5267 31.132 36.6937 31.4624C35.392 31.9318 34.0036 32.1578 32.6152 32.1057C31.2268 32.1405 29.8384 31.9318 28.5367 31.4624C27.7037 31.1494 26.9401 30.6278 26.3326 29.9671C25.8814 29.4802 25.569 28.8717 25.4302 28.2109C25.2913 27.7589 25.2913 27.3068 25.2393 26.8547V9.15455C25.2219 8.98068 25.3608 8.84158 25.5169 8.82419C25.5343 8.82419 25.5343 8.82419 25.5517 8.82419H28.5888C28.7624 8.80681 28.9012 8.9459 28.9186 9.11978C28.9186 9.13716 28.9186 9.13716 28.9186 9.15455V25.6376C28.9359 26.0549 28.9706 26.4548 29.0574 26.8721C29.1615 27.2025 29.3524 27.5155 29.5781 27.7763C29.8731 28.1066 30.2549 28.35 30.6714 28.4891C31.2962 28.6978 31.9557 28.8021 32.6152 28.8195C33.2921 28.8369 33.9863 28.7326 34.6284 28.4891C35.0449 28.3674 35.4268 28.1414 35.7218 27.8458C35.9821 27.6198 36.1557 27.3242 36.2424 26.9938C36.3813 26.5765 36.4334 26.1419 36.4334 25.6898V9.15455C36.416 8.99807 36.5375 8.84158 36.6937 8.82419H39.8003C39.9738 8.80681 40.1126 8.9459 40.13 9.11978C40.13 9.13716 40.13 9.13716 40.13 9.15455L39.9912 26.0028Z" fill="#2B2B2B"/>
<path id="Vector_23" d="M18.8178 0.513101H21.855C22.0286 0.495714 22.1674 0.634811 22.1847 0.791296C22.1847 0.808683 22.1847 0.826071 22.1847 0.826071V31.7753C22.2021 31.9492 22.0633 32.0883 21.8897 32.1057C21.8724 32.1057 21.8724 32.1057 21.855 32.1057H18.8178C18.6443 32.1231 18.5055 31.984 18.4881 31.8101C18.4881 31.7927 18.4881 31.7927 18.4881 31.7753V0.826071C18.5575 0.634811 18.679 0.513101 18.8178 0.513101Z" fill="#2B2B2B"/>
<path id="Vector_24" d="M0.751129 40.1733C0.768484 39.8604 1.01146 39.5996 1.3412 39.5822H5.03786C5.35025 39.5996 5.61058 39.843 5.62793 40.1733V60.6555C5.61058 60.9685 5.36761 61.2293 5.03786 61.2467H1.3412C1.02881 61.2293 0.768484 60.9858 0.751129 60.6555C0.751129 60.6555 0.751129 40.1733 0.751129 40.1733Z" fill="#2B2B2B"/>
<path id="Vector_25" d="M10.9039 39.843C10.9213 39.53 11.1816 39.2866 11.494 39.2866H12.2576L24.5798 51.1621H24.6145V40.1733C24.6145 39.843 24.8748 39.5822 25.2046 39.5822H28.9012C29.2136 39.5996 29.4739 39.843 29.4913 40.1733V60.9858C29.4739 61.2988 29.2136 61.5422 28.9012 61.5422H28.4153C28.2764 61.5248 28.1376 61.4727 28.0161 61.3857L15.8154 49.1104H15.7807V60.6555C15.7807 60.9858 15.5204 61.2466 15.1906 61.2466H11.5287C11.2163 61.2293 10.956 60.9858 10.9386 60.6555L10.9039 39.843Z" fill="#2B2B2B"/>
<path id="Vector_26" d="M44.382 39.2866C47.4712 39.2866 49.7621 40.2429 51.8447 42.1555C52.0877 42.3467 52.1224 42.7119 51.9315 42.9727C51.9142 42.9901 51.8968 43.0075 51.8795 43.0248L49.4671 45.546C49.2588 45.7546 48.9117 45.7546 48.7035 45.546C47.558 44.5375 46.0655 43.9638 44.5382 43.9638C41.0498 43.9638 38.4813 46.8674 38.4813 50.3275C38.4813 53.7701 41.0845 56.6043 44.5556 56.6043C46.0655 56.6043 47.5233 56.0826 48.6861 55.1263C48.9291 54.9351 49.2588 54.9525 49.4844 55.1611L51.8968 57.717C52.1051 57.9605 52.0877 58.3256 51.8621 58.5516C49.8489 60.499 47.1589 61.577 44.3647 61.5596C38.2209 61.5596 33.2574 56.5695 33.2574 50.4318C33.2574 44.2941 38.2383 39.2866 44.382 39.2866Z" fill="#2B2B2B"/>
<path id="Vector_27" d="M55.5761 40.1733C55.5761 39.843 55.8364 39.5822 56.1662 39.5822H59.8455C60.1579 39.5996 60.4182 39.843 60.4356 40.1733V56.6912H67.7768C68.1066 56.6912 68.3669 56.952 68.3669 57.2824V60.6555C68.3669 60.9858 68.1066 61.2467 67.7768 61.2467H56.1662C55.8364 61.2467 55.5761 60.9858 55.5761 60.6555V40.1733V40.1733Z" fill="#2B2B2B"/>
<path id="Vector_28" d="M70.7966 40.1733C70.814 39.8604 71.057 39.5996 71.3867 39.5822H75.1875C75.5172 39.5822 75.7776 39.843 75.7776 40.1733V52.6921C75.7776 54.8655 77.3742 56.5869 79.5784 56.5869C81.7998 56.5869 83.4312 54.8482 83.4312 52.6921V40.1733C83.4312 39.843 83.6915 39.5822 84.0213 39.5822H87.8221C88.1344 39.5996 88.3948 39.843 88.4121 40.1733V52.953C88.4121 57.6475 84.4552 61.5596 79.5784 61.5596C74.7363 61.5596 70.814 57.6649 70.814 52.953L70.7966 40.1733Z" fill="#2B2B2B"/>
<path id="Vector_29" d="M93.3757 40.1733C93.3757 39.8604 93.6187 39.5996 93.9311 39.5822H101.463C107.416 39.5822 112.293 44.4332 112.293 50.3796C112.293 56.3782 107.433 61.2293 101.463 61.2293H93.9311C93.6187 61.2119 93.3757 60.9511 93.3757 60.6381V40.1733ZM101.151 56.6738C104.639 56.6738 107.173 53.9266 107.173 50.397C107.173 46.9022 104.639 44.155 101.151 44.155H98.1831V56.6738H101.151Z" fill="#2B2B2B"/>
<path id="Vector_30" d="M116.076 40.1733C116.076 39.843 116.337 39.5822 116.666 39.5822H129.44C129.77 39.5822 130.03 39.843 130.03 40.1733V43.5465C130.03 43.8768 129.77 44.1376 129.44 44.1376H120.884V47.9802H127.93C128.242 47.9976 128.503 48.241 128.52 48.5714V51.9445C128.52 52.2748 128.26 52.5357 127.93 52.5357H120.884V56.7086H129.44C129.77 56.7086 130.03 56.9694 130.03 57.2998V60.6729C130.03 61.0032 129.77 61.264 129.44 61.264H116.666C116.337 61.264 116.076 61.0032 116.076 60.6729V40.1733Z" fill="#2B2B2B"/>
<path id="Vector_31" d="M13.6981 10.389C12.4659 9.41536 10.6609 8.89374 8.12707 8.89374C6.98163 8.87635 5.81883 8.98068 4.69074 9.20671C3.8577 9.39797 3.09407 9.78049 2.43457 10.3021C1.86185 10.7368 1.41062 11.3279 1.13293 11.9887C0.872606 12.632 0.75112 13.3101 0.75112 14.0056V14.788C0.733765 14.9619 0.872606 15.101 1.0288 15.1184C1.04616 15.1184 1.04616 15.1184 1.06351 15.1184H4.10067C4.23951 15.101 4.34364 14.9967 4.361 14.8576C4.41306 14.1621 4.69074 13.5014 5.14198 12.9797C5.66263 12.3886 6.63452 12.0756 8.05765 12.0756C8.66508 12.0061 9.28987 12.0756 9.87994 12.2669C10.2791 12.4233 10.6609 12.632 10.9733 12.9102C11.4419 13.3623 11.7196 14.0056 11.7543 14.6663V15.5704C11.7543 15.8834 11.6849 16.1964 11.5634 16.4746C11.4593 16.718 11.3031 16.944 11.1122 17.1179C10.9733 17.3092 10.7998 17.4483 10.5915 17.57C10.4527 17.6743 10.2965 17.7612 10.1403 17.8308C10.0708 17.9003 9.81052 17.9699 9.30722 18.1611C8.80392 18.3524 8.33533 18.5436 7.69319 18.7523C7.05105 18.9609 6.40891 19.1348 5.74941 19.3956C5.08991 19.6564 4.49984 19.7781 3.97918 19.9868C2.97258 20.3171 2.10482 21.0126 1.58417 21.9342C1.04616 22.8209 0.75112 23.8294 0.733765 24.8552V26.8547C0.768475 27.4285 0.889962 28.0023 1.06351 28.5413C1.27178 29.202 1.65359 29.7758 2.15689 30.2279C2.78168 30.8364 3.52795 31.2711 4.361 31.5319C5.5585 31.897 6.80808 32.0709 8.05765 32.0535C9.30722 32.1057 10.5568 31.9318 11.7543 31.5319C12.5874 31.2711 13.3683 30.819 14.0278 30.2279C14.5485 29.7758 14.9303 29.202 15.1212 28.5413C15.3295 28.0023 15.4336 27.4285 15.451 26.8547V14.1447C15.451 12.6842 14.8088 11.3106 13.6981 10.389ZM11.0427 27.9675C10.5221 28.4891 9.55019 28.8021 8.12707 28.8021C6.70395 28.8021 5.73206 28.5413 5.2114 28.0197C4.63868 27.3242 4.361 26.4548 4.43042 25.5507C4.43042 25.0812 4.5519 24.6118 4.74281 24.1945C4.95107 23.8641 5.17669 23.5686 5.45437 23.2904C5.7147 23.0991 6.09651 22.9078 6.42626 22.6992C6.80808 22.5079 7.39815 22.3688 7.84939 22.1776C8.30062 21.9689 8.78657 21.7951 9.27251 21.656C9.79317 21.5342 10.2444 21.3256 10.6956 21.2039C10.9213 21.1343 11.1469 21.03 11.3378 20.8735C11.5808 20.7344 11.7369 20.491 11.789 20.2302V25.5507C11.9105 26.4374 11.6155 27.3068 11.0427 27.9675Z" fill="#2B2B2B"/>
</g>
</g>
<defs>
<clipPath id="clip0_1_628">
<rect width="130" height="74" fill="white"/>
</clipPath>
</defs>
</svg>
